<svg width="512" height="512" viewBox="0 0 512 512" fill="none" xmlns="http://www.w3.org/2000/svg">
<path d="M60.0138 154.101L12.4914 162.901C11.7988 163.029 11.4523 163.814 11.8243 164.412L41.986 212.908C42.2099 213.268 42.6365 213.447 43.0505 213.356L82.8904 204.568C83.5144 204.43 83.8509 203.751 83.5823 203.171L61.1032 154.663C60.9112 154.249 60.4629 154.017 60.0138 154.101Z" fill="url(#paint0_linear_13_107)"/>
<path d="M207.556 91.5382L156.561 53.5882C155.978 53.1548 155.143 53.4668 154.987 54.1758L143.194 107.836C143.102 108.251 143.284 108.679 143.647 108.902L192.882 139.155C193.443 139.5 194.179 139.218 194.365 138.586L207.918 92.6233C208.037 92.2214 207.892 91.7883 207.556 91.5382Z" fill="url(#paint1_linear_13_107)"/>
<path d="M304.499 79.8887L350.472 49.8292C351.08 49.4316 351.896 49.7947 352.008 50.5126L361.493 111.577C361.554 111.965 361.382 112.352 361.054 112.567L321.602 138.476C321.037 138.847 320.274 138.562 320.091 137.911L304.083 80.9964C303.965 80.5761 304.133 80.1277 304.499 79.8887Z" fill="url(#paint2_linear_13_107)"/>
<path d="M454.441 154.682L503.756 161.727C504.464 161.828 504.84 162.618 504.472 163.231L474.291 213.534C474.078 213.888 473.669 214.076 473.262 214.005L432.819 206.971C432.184 206.861 431.818 206.189 432.069 205.596L453.379 155.282C453.555 154.864 453.992 154.618 454.441 154.682Z" fill="url(#paint3_linear_13_107)"/>
<path d="M206.272 167.465C203.817 100.549 238.399 55.1199 255.998 41C304.619 85.6926 305.112 144.137 306.953 167.465C310.391 232.294 274.416 281.243 255.998 297.614C207.376 245.554 205.659 189.566 206.272 167.465Z" fill="url(#paint4_linear_13_107)"/>
<path d="M0 248.501C42.2369 220.998 81.036 217.396 95.1559 219.033C134.937 271.584 201.976 298.842 238.197 301.297C123.396 364.53 27.8305 291.065 0 248.501Z" fill="url(#paint5_linear_13_107)"/>
<path d="M512 249.55C469.763 222.047 430.964 218.446 416.844 220.083C377.063 272.633 310.024 299.891 273.803 302.347C388.604 365.579 484.169 292.115 512 249.55Z" fill="url(#paint6_linear_13_107)"/>
<path d="M176.191 142.295C134.446 109.39 88.4023 105.256 70.599 107.302C68.6345 148.557 88.1977 185.473 98.2249 198.775C151.267 271.952 207.501 286.154 228.987 284.108C202.958 249.238 195.222 208.597 194.609 192.636C196.082 163.168 182.944 146.797 176.191 142.295Z" fill="url(#paint7_linear_13_107)"/>
<path d="M335.809 143.344C377.554 110.439 423.598 106.305 441.401 108.351C443.366 149.606 423.802 186.522 413.775 199.824C360.733 273.002 304.499 287.203 283.013 285.157C309.042 250.287 316.778 209.646 317.391 193.685C315.918 164.217 329.056 147.846 335.809 143.344Z" fill="url(#paint8_linear_13_107)"/>
<path d="M183.752 450.377C175.247 450.377 169.099 448.066 165.309 443.443C161.518 438.821 159.623 431.425 159.623 421.256V344.986H174.322V420.562C174.322 424.445 174.692 427.612 175.432 430.062C176.171 432.511 177.604 434.314 179.73 435.47C181.903 436.625 185.092 437.203 189.299 437.203C193.135 437.203 198.035 436.325 203.998 434.568L205.662 447.465C201.918 448.482 198.312 449.221 194.846 449.684C191.425 450.146 187.727 450.377 183.752 450.377ZM137.99 357.883V344.986H160.871V357.883H137.99ZM269.312 450.377C258.173 450.377 250.106 448.066 245.114 443.443C240.168 438.821 237.695 431.425 237.695 421.256V408.775H252.395V420.562C252.395 426.387 253.804 430.616 256.624 433.251C259.49 435.886 264.182 437.203 270.699 437.203C273.01 437.203 275.46 437.088 278.049 436.856C280.637 436.579 283.596 436.232 286.924 435.816L288.588 448.713C285.352 449.268 282.186 449.684 279.089 449.961C276.038 450.238 272.779 450.377 269.312 450.377ZM237.695 414.322V353.307H252.395V414.322H237.695ZM219.252 388.391V375.494H285.814V388.391H219.252ZM333.518 450.377C327.971 450.377 323.21 450.215 319.234 449.892C315.305 449.568 311.7 449.036 308.418 448.297L310.082 434.984C314.936 435.724 319.211 436.279 322.909 436.648C326.653 437.018 330.189 437.203 333.518 437.203C340.96 437.203 346.345 436.487 349.673 435.054C353.047 433.575 354.734 431.24 354.734 428.051C354.734 425.832 354.133 424.191 352.932 423.128C351.776 422.019 349.973 421.163 347.523 420.562L330.605 416.264C323.348 414.415 318.009 412.127 314.589 409.399C311.215 406.672 309.527 402.535 309.527 396.988C309.527 388.945 312.601 383.121 318.749 379.516C324.943 375.91 334.904 374.107 348.633 374.107C352.192 374.107 355.497 374.223 358.548 374.454C361.645 374.639 364.811 374.986 368.047 375.494L366.521 388.252C362.777 387.882 359.472 387.628 356.606 387.489C353.741 387.351 350.944 387.281 348.217 387.281C339.989 387.281 334.026 387.998 330.328 389.431C326.63 390.817 324.781 393.105 324.781 396.295C324.781 398.421 325.544 399.97 327.069 400.94C328.595 401.865 330.929 402.72 334.072 403.506L347.662 406.834C355.382 408.683 361.021 411.156 364.58 414.253C368.186 417.35 369.988 421.857 369.988 427.773C369.988 435.678 367.099 441.433 361.321 445.038C355.543 448.597 346.275 450.377 333.518 450.377Z" fill="#657075"/>
<defs>
<linearGradient id="paint0_linear_13_107" x1="11.0503" y1="153.345" x2="84.7194" y2="213.508" gradientUnits="userSpaceOnUse">
<stop stop-color="#0D9C60"/>
<stop offset="1" stop-color="#0D9C9C"/>
</linearGradient>
<linearGradient id="paint1_linear_13_107" x1="149.794" y1="70.4677" x2="223.463" y2="130.631" gradientUnits="userSpaceOnUse">
<stop stop-color="#0D9C60"/>
<stop offset="1" stop-color="#0D9C9C"/>
</linearGradient>
<linearGradient id="paint2_linear_13_107" x1="357.909" y1="50.8226" x2="284.24" y2="110.986" gradientUnits="userSpaceOnUse">
<stop stop-color="#0D9C60"/>
<stop offset="1" stop-color="#0D9C9C"/>
</linearGradient>
<linearGradient id="paint3_linear_13_107" x1="491.127" y1="117.125" x2="417.458" y2="177.288" gradientUnits="userSpaceOnUse">
<stop stop-color="#0D9C60"/>
<stop offset="1" stop-color="#0D9C9C"/>
</linearGradient>
<linearGradient id="paint4_linear_13_107" x1="205.3" y1="40.3257" x2="328.488" y2="50.4967" gradientUnits="userSpaceOnUse">
<stop stop-color="#D24DB4"/>
<stop offset="1" stop-color="#CF3FAF"/>
</linearGradient>
<linearGradient id="paint5_linear_13_107" x1="5.72305e-06" y1="218.42" x2="236.969" y2="326.468" gradientUnits="userSpaceOnUse">
<stop stop-color="#D24DB4"/>
<stop offset="1" stop-color="#CF3FAF"/>
</linearGradient>
<linearGradient id="paint6_linear_13_107" x1="512" y1="219.469" x2="275.031" y2="327.517" gradientUnits="userSpaceOnUse">
<stop stop-color="#D24DB4"/>
<stop offset="1" stop-color="#CF3FAF"/>
</linearGradient>
<linearGradient id="paint7_linear_13_107" x1="70.4614" y1="106.401" x2="256.099" y2="140.715" gradientUnits="userSpaceOnUse">
<stop stop-color="#D24DB4"/>
<stop offset="1" stop-color="#CF3FAF"/>
</linearGradient>
<linearGradient id="paint8_linear_13_107" x1="441.539" y1="107.45" x2="255.901" y2="141.764" gradientUnits="userSpaceOnUse">
<stop stop-color="#D24DB4"/>
<stop offset="1" stop-color="#CF3FAF"/>
</linearGradient>
</defs>
</svg>
