<svg width="512" height="512" viewBox="0 0 512 512" fill="none" xmlns="http://www.w3.org/2000/svg">
<path d="M60.0138 156.101L12.4914 164.901C11.7988 165.029 11.4523 165.814 11.8243 166.413L41.986 214.908C42.2099 215.268 42.6365 215.447 43.0505 215.356L82.8904 206.568C83.5144 206.43 83.8509 205.751 83.5823 205.171L61.1032 156.663C60.9112 156.249 60.4629 156.018 60.0138 156.101Z" fill="url(#paint0_linear_13_64)"/>
<path d="M207.556 93.5383L156.561 55.5883C155.978 55.155 155.143 55.4669 154.987 56.1759L143.194 109.836C143.102 110.251 143.284 110.68 143.647 110.902L192.882 141.155C193.443 141.5 194.179 141.218 194.365 140.586L207.918 94.6234C208.037 94.2215 207.892 93.7884 207.556 93.5383Z" fill="url(#paint1_linear_13_64)"/>
<path d="M304.499 81.8888L350.472 51.8293C351.08 51.4317 351.896 51.7948 352.008 52.5128L361.493 113.578C361.554 113.965 361.382 114.352 361.054 114.567L321.602 140.476C321.037 140.847 320.274 140.562 320.091 139.911L304.083 82.9965C303.965 82.5762 304.133 82.1278 304.499 81.8888Z" fill="url(#paint2_linear_13_64)"/>
<path d="M454.441 156.682L503.756 163.727C504.464 163.828 504.84 164.618 504.472 165.232L474.291 215.534C474.078 215.889 473.669 216.076 473.262 216.005L432.819 208.971C432.184 208.861 431.818 208.189 432.069 207.596L453.379 157.282C453.555 156.864 453.992 156.618 454.441 156.682Z" fill="url(#paint3_linear_13_64)"/>
<path d="M206.272 169.465C203.817 102.549 238.399 57.1199 255.998 43C304.619 87.6926 305.112 146.137 306.953 169.465C310.391 234.294 274.416 283.243 255.998 299.614C207.376 247.554 205.659 191.566 206.272 169.465Z" fill="url(#paint4_linear_13_64)"/>
<path d="M0 250.501C42.2369 222.998 81.036 219.396 95.1559 221.033C134.937 273.584 201.976 300.842 238.197 303.297C123.396 366.53 27.8305 293.065 0 250.501Z" fill="url(#paint5_linear_13_64)"/>
<path d="M512 251.55C469.763 224.047 430.964 220.446 416.844 222.083C377.063 274.633 310.024 301.891 273.803 304.347C388.604 367.579 484.169 294.115 512 251.55Z" fill="url(#paint6_linear_13_64)"/>
<path d="M176.191 144.295C134.446 111.39 88.4023 107.256 70.599 109.302C68.6345 150.557 88.1977 187.473 98.2249 200.775C151.267 273.952 207.501 288.154 228.987 286.108C202.958 251.238 195.222 210.597 194.609 194.636C196.082 165.168 182.944 148.797 176.191 144.295Z" fill="url(#paint7_linear_13_64)"/>
<path d="M335.809 145.344C377.554 112.439 423.598 108.305 441.401 110.351C443.366 151.606 423.802 188.522 413.775 201.824C360.733 275.002 304.499 289.203 283.013 287.157C309.042 252.287 316.778 211.646 317.391 195.685C315.918 166.217 329.056 149.846 335.809 145.344Z" fill="url(#paint8_linear_13_64)"/>
<path d="M100.549 452.377C92.0436 452.377 85.8958 450.066 82.1055 445.443C78.3151 440.821 76.4199 433.425 76.4199 423.256V346.986H91.1191V422.562C91.1191 426.445 91.4889 429.612 92.2285 432.062C92.9681 434.511 94.401 436.314 96.5273 437.47C98.6999 438.625 101.889 439.203 106.096 439.203C109.932 439.203 114.832 438.325 120.795 436.568L122.459 449.465C118.715 450.482 115.109 451.221 111.643 451.684C108.222 452.146 104.524 452.377 100.549 452.377ZM54.7871 359.883V346.986H77.668V359.883H54.7871ZM172.797 452.377C162.628 452.377 154.723 449.049 149.084 442.393C143.445 435.736 140.625 426.353 140.625 414.242C140.625 402.085 143.445 392.702 149.084 386.092C154.723 379.436 162.628 376.107 172.797 376.107C183.012 376.107 190.917 379.436 196.51 386.092C202.149 392.702 204.969 402.085 204.969 414.242C204.969 426.353 202.149 435.736 196.51 442.393C190.917 449.049 183.012 452.377 172.797 452.377ZM172.797 439.203C178.205 439.203 182.365 437.031 185.277 432.686C188.236 428.34 189.715 422.193 189.715 414.242C189.715 406.245 188.236 400.098 185.277 395.799C182.365 391.454 178.205 389.281 172.797 389.281C167.389 389.281 163.205 391.454 160.247 395.799C157.335 400.098 155.879 406.245 155.879 414.242C155.879 422.193 157.335 428.34 160.247 432.686C163.205 437.031 167.389 439.203 172.797 439.203ZM269.312 452.377C258.173 452.377 250.106 450.066 245.114 445.443C240.168 440.821 237.695 433.425 237.695 423.256V410.775H252.395V422.562C252.395 428.387 253.804 432.616 256.624 435.251C259.49 437.886 264.182 439.203 270.699 439.203C273.01 439.203 275.46 439.088 278.049 438.856C280.637 438.579 283.596 438.232 286.924 437.816L288.588 450.713C285.352 451.268 282.186 451.684 279.089 451.961C276.038 452.238 272.779 452.377 269.312 452.377ZM237.695 416.322V355.307H252.395V416.322H237.695ZM219.252 390.391V377.494H285.814V390.391H219.252ZM331.992 452.377C324.273 452.377 318.287 450.089 314.034 445.513C309.828 440.89 307.725 434.396 307.725 426.029V377.494H322.424V426.029C322.424 430.236 323.626 433.494 326.029 435.806C328.433 438.071 331.807 439.203 336.152 439.203C341.514 439.203 345.559 437.516 348.286 434.142C351.013 430.721 352.377 425.012 352.377 417.016L356.121 436.846H351.268C350.112 441.838 347.847 445.674 344.473 448.355C341.098 451.036 336.938 452.377 331.992 452.377ZM353.625 451.684L352.377 434.072V421.176H367.076V437.678L377.199 439.203V450.99L353.625 451.684ZM352.377 430.189V377.494H367.076V426.029L352.377 430.189ZM416.721 452.377C411.174 452.377 406.413 452.215 402.438 451.892C398.508 451.568 394.903 451.036 391.621 450.297L393.285 436.984C398.139 437.724 402.414 438.279 406.112 438.648C409.856 439.018 413.393 439.203 416.721 439.203C424.163 439.203 429.548 438.487 432.876 437.054C436.25 435.575 437.938 433.24 437.938 430.051C437.938 427.832 437.337 426.191 436.135 425.128C434.979 424.019 433.176 423.163 430.727 422.562L413.809 418.264C406.551 416.415 401.213 414.127 397.792 411.399C394.418 408.672 392.73 404.535 392.73 398.988C392.73 390.945 395.804 385.121 401.952 381.516C408.146 377.91 418.107 376.107 431.836 376.107C435.395 376.107 438.7 376.223 441.751 376.454C444.848 376.639 448.014 376.986 451.25 377.494L449.725 390.252C445.98 389.882 442.675 389.628 439.81 389.489C436.944 389.351 434.147 389.281 431.42 389.281C423.192 389.281 417.229 389.998 413.531 391.431C409.833 392.817 407.984 395.105 407.984 398.295C407.984 400.421 408.747 401.97 410.272 402.94C411.798 403.865 414.132 404.72 417.275 405.506L430.865 408.834C438.585 410.683 444.224 413.156 447.783 416.253C451.389 419.35 453.191 423.857 453.191 429.773C453.191 437.678 450.302 443.433 444.524 447.038C438.746 450.597 429.479 452.377 416.721 452.377Z" fill="#657075"/>
<defs>
<linearGradient id="paint0_linear_13_64" x1="11.0503" y1="155.345" x2="84.7194" y2="215.509" gradientUnits="userSpaceOnUse">
<stop stop-color="#1EAC9F"/>
<stop offset="1" stop-color="#27B0CD"/>
</linearGradient>
<linearGradient id="paint1_linear_13_64" x1="149.794" y1="72.4678" x2="223.463" y2="132.631" gradientUnits="userSpaceOnUse">
<stop stop-color="#1DAB98"/>
<stop offset="1" stop-color="#25AFC9"/>
</linearGradient>
<linearGradient id="paint2_linear_13_64" x1="357.909" y1="52.8227" x2="284.24" y2="112.986" gradientUnits="userSpaceOnUse">
<stop stop-color="#1EACA1"/>
<stop offset="1" stop-color="#25AFCC"/>
</linearGradient>
<linearGradient id="paint3_linear_13_64" x1="491.127" y1="119.125" x2="417.458" y2="179.288" gradientUnits="userSpaceOnUse">
<stop stop-color="#20ACA9"/>
<stop offset="1" stop-color="#27B0D8"/>
</linearGradient>
<linearGradient id="paint4_linear_13_64" x1="205.3" y1="42.3257" x2="328.488" y2="52.4967" gradientUnits="userSpaceOnUse">
<stop stop-color="#7D6DE5"/>
<stop offset="1" stop-color="#7B6BE3"/>
</linearGradient>
<linearGradient id="paint5_linear_13_64" x1="5.72305e-06" y1="220.42" x2="236.969" y2="328.468" gradientUnits="userSpaceOnUse">
<stop stop-color="#7D70E8"/>
<stop offset="1" stop-color="#7B66E0"/>
</linearGradient>
<linearGradient id="paint6_linear_13_64" x1="512" y1="221.469" x2="275.031" y2="329.517" gradientUnits="userSpaceOnUse">
<stop stop-color="#7D70E8"/>
<stop offset="1" stop-color="#7B66E0"/>
</linearGradient>
<linearGradient id="paint7_linear_13_64" x1="70.4614" y1="108.401" x2="256.099" y2="142.715" gradientUnits="userSpaceOnUse">
<stop stop-color="#7E72E9"/>
<stop offset="1" stop-color="#7A66E0"/>
</linearGradient>
<linearGradient id="paint8_linear_13_64" x1="441.539" y1="109.45" x2="255.901" y2="143.764" gradientUnits="userSpaceOnUse">
<stop stop-color="#7E72E9"/>
<stop offset="1" stop-color="#7A66E0"/>
</linearGradient>
</defs>
</svg>
