<svg width="512" height="512" viewBox="0 0 512 512" fill="none" xmlns="http://www.w3.org/2000/svg">
<path d="M60.0138 127.101L12.4914 135.901C11.7988 136.029 11.4523 136.814 11.8243 137.413L41.986 185.908C42.2099 186.268 42.6365 186.447 43.0505 186.356L82.8904 177.568C83.5144 177.43 83.8509 176.751 83.5823 176.171L61.1032 127.663C60.9112 127.249 60.4629 127.018 60.0138 127.101Z" fill="url(#paint0_linear_13_91)"/>
<path d="M207.556 64.5383L156.561 26.5883C155.978 26.155 155.143 26.4669 154.987 27.1759L143.194 80.8357C143.102 81.2515 143.284 81.6795 143.647 81.9024L192.882 112.155C193.443 112.5 194.179 112.218 194.365 111.586L207.918 65.6234C208.037 65.2215 207.892 64.7884 207.556 64.5383Z" fill="url(#paint1_linear_13_91)"/>
<path d="M304.499 52.8888L350.472 22.8293C351.08 22.4317 351.896 22.7948 352.008 23.5128L361.493 84.5775C361.554 84.9649 361.382 85.3517 361.054 85.5669L321.602 111.476C321.037 111.847 320.274 111.562 320.091 110.911L304.083 53.9965C303.965 53.5762 304.133 53.1278 304.499 52.8888Z" fill="url(#paint2_linear_13_91)"/>
<path d="M454.441 127.682L503.756 134.727C504.464 134.828 504.84 135.618 504.472 136.232L474.291 186.534C474.078 186.889 473.669 187.076 473.262 187.005L432.819 179.971C432.184 179.861 431.818 179.189 432.069 178.596L453.379 128.282C453.555 127.864 453.992 127.618 454.441 127.682Z" fill="url(#paint3_linear_13_91)"/>
<path d="M206.272 140.465C203.817 73.5492 238.399 28.1199 255.998 14C304.619 58.6926 305.112 117.137 306.953 140.465C310.391 205.294 274.416 254.243 255.998 270.614C207.376 218.554 205.659 162.566 206.272 140.465Z" fill="url(#paint4_linear_13_91)"/>
<path d="M0 221.501C42.2369 193.998 81.036 190.396 95.1559 192.033C134.937 244.584 201.976 271.842 238.197 274.297C123.396 337.53 27.8305 264.065 0 221.501Z" fill="url(#paint5_linear_13_91)"/>
<path d="M512 222.55C469.763 195.047 430.964 191.446 416.844 193.083C377.063 245.633 310.024 272.891 273.803 275.347C388.604 338.579 484.169 265.115 512 222.55Z" fill="url(#paint6_linear_13_91)"/>
<path d="M176.191 115.295C134.446 82.3896 88.4023 78.256 70.599 80.3023C68.6345 121.557 88.1977 158.473 98.2249 171.775C151.267 244.952 207.501 259.154 228.987 257.108C202.958 222.238 195.222 181.597 194.609 165.636C196.082 136.168 182.944 119.797 176.191 115.295Z" fill="url(#paint7_linear_13_91)"/>
<path d="M335.809 116.344C377.554 83.4387 423.598 79.305 441.401 81.3514C443.366 122.606 423.802 159.522 413.775 172.824C360.733 246.002 304.499 260.203 283.013 258.157C309.042 223.287 316.778 182.646 317.391 166.685C315.918 137.217 329.056 120.846 335.809 116.344Z" fill="url(#paint8_linear_13_91)"/>
<path d="M150.906 385.928C145.156 385.928 141 384.365 138.438 381.24C135.875 378.115 134.594 373.115 134.594 366.24V314.678H144.531V365.771C144.531 368.396 144.781 370.537 145.281 372.193C145.781 373.85 146.75 375.068 148.188 375.85C149.656 376.631 151.812 377.021 154.656 377.021C157.25 377.021 160.562 376.428 164.594 375.24L165.719 383.959C163.188 384.646 160.75 385.146 158.406 385.459C156.094 385.771 153.594 385.928 150.906 385.928ZM119.969 323.396V314.678H135.438V323.396H119.969ZM199.75 385.928C192.875 385.928 187.531 383.678 183.719 379.178C179.906 374.678 178 368.334 178 360.146C178 351.928 179.906 345.584 183.719 341.115C187.531 336.615 192.875 334.365 199.75 334.365C206.656 334.365 212 336.615 215.781 341.115C219.594 345.584 221.5 351.928 221.5 360.146C221.5 368.334 219.594 374.678 215.781 379.178C212 383.678 206.656 385.928 199.75 385.928ZM199.75 377.021C203.406 377.021 206.219 375.553 208.188 372.615C210.188 369.678 211.188 365.521 211.188 360.146C211.188 354.74 210.188 350.584 208.188 347.678C206.219 344.74 203.406 343.271 199.75 343.271C196.094 343.271 193.266 344.74 191.266 347.678C189.297 350.584 188.312 354.74 188.312 360.146C188.312 365.521 189.297 369.678 191.266 372.615C193.266 375.553 196.094 377.021 199.75 377.021ZM265 385.928C257.469 385.928 252.016 384.365 248.641 381.24C245.297 378.115 243.625 373.115 243.625 366.24V357.803H253.562V365.771C253.562 369.709 254.516 372.568 256.422 374.35C258.359 376.131 261.531 377.021 265.938 377.021C267.5 377.021 269.156 376.943 270.906 376.787C272.656 376.6 274.656 376.365 276.906 376.084L278.031 384.803C275.844 385.178 273.703 385.459 271.609 385.646C269.547 385.834 267.344 385.928 265 385.928ZM243.625 361.553V320.303H253.562V361.553H243.625ZM231.156 344.021V335.303H276.156V344.021H231.156ZM307.375 385.928C302.156 385.928 298.109 384.381 295.234 381.287C292.391 378.162 290.969 373.771 290.969 368.115V335.303H300.906V368.115C300.906 370.959 301.719 373.162 303.344 374.725C304.969 376.256 307.25 377.021 310.188 377.021C313.812 377.021 316.547 375.881 318.391 373.6C320.234 371.287 321.156 367.428 321.156 362.021L323.688 375.428H320.406C319.625 378.803 318.094 381.396 315.812 383.209C313.531 385.021 310.719 385.928 307.375 385.928ZM322 385.459L321.156 373.553V364.834H331.094V375.99L337.938 377.021V384.99L322 385.459ZM321.156 370.928V335.303H331.094V368.115L321.156 370.928ZM364.656 385.928C360.906 385.928 357.688 385.818 355 385.6C352.344 385.381 349.906 385.021 347.688 384.521L348.812 375.521C352.094 376.021 354.984 376.396 357.484 376.646C360.016 376.896 362.406 377.021 364.656 377.021C369.688 377.021 373.328 376.537 375.578 375.568C377.859 374.568 379 372.99 379 370.834C379 369.334 378.594 368.225 377.781 367.506C377 366.756 375.781 366.178 374.125 365.771L362.688 362.865C357.781 361.615 354.172 360.068 351.859 358.225C349.578 356.381 348.438 353.584 348.438 349.834C348.438 344.396 350.516 340.459 354.672 338.021C358.859 335.584 365.594 334.365 374.875 334.365C377.281 334.365 379.516 334.443 381.578 334.6C383.672 334.725 385.812 334.959 388 335.303L386.969 343.928C384.438 343.678 382.203 343.506 380.266 343.412C378.328 343.318 376.438 343.271 374.594 343.271C369.031 343.271 365 343.756 362.5 344.725C360 345.662 358.75 347.209 358.75 349.365C358.75 350.803 359.266 351.85 360.297 352.506C361.328 353.131 362.906 353.709 365.031 354.24L374.219 356.49C379.438 357.74 383.25 359.412 385.656 361.506C388.094 363.6 389.312 366.646 389.312 370.646C389.312 375.99 387.359 379.881 383.453 382.318C379.547 384.725 373.281 385.928 364.656 385.928Z" fill="#657075"/>
<path d="M26.125 479.928C20.9062 479.928 16.8594 478.381 13.9844 475.287C11.1406 472.162 9.71875 467.771 9.71875 462.115V429.303H19.6562V462.115C19.6562 464.959 20.4688 467.162 22.0938 468.725C23.7188 470.256 26 471.021 28.9375 471.021C32.5625 471.021 35.2969 469.881 37.1406 467.6C38.9844 465.287 39.9062 461.428 39.9062 456.021L42.4375 469.428H39.1562C38.375 472.803 36.8438 475.396 34.5625 477.209C32.2812 479.021 29.4688 479.928 26.125 479.928ZM40.75 479.459L39.9062 467.553V458.834H49.8438V469.99L56.6875 471.021V478.99L40.75 479.459ZM39.9062 464.928V429.303H49.8438V462.115L39.9062 464.928ZM96.25 479.928C88.7188 479.928 83.2656 478.365 79.8906 475.24C76.5469 472.115 74.875 467.115 74.875 460.24V451.803H84.8125V459.771C84.8125 463.709 85.7656 466.568 87.6719 468.35C89.6094 470.131 92.7812 471.021 97.1875 471.021C98.75 471.021 100.406 470.943 102.156 470.787C103.906 470.6 105.906 470.365 108.156 470.084L109.281 478.803C107.094 479.178 104.953 479.459 102.859 479.646C100.797 479.834 98.5938 479.928 96.25 479.928ZM74.875 455.553V414.303H84.8125V455.553H74.875ZM62.4062 438.021V429.303H107.406V438.021H62.4062ZM141.812 478.99V432.115H151.75V478.99H141.812ZM122.875 478.99V470.271H142.75V478.99H122.875ZM150.812 478.99V470.271H167.031V478.99H150.812ZM125.688 438.021V429.303H151.75V438.021H125.688ZM146.453 421.428C144.547 421.428 142.906 420.756 141.531 419.412C140.188 418.037 139.516 416.396 139.516 414.49C139.516 412.553 140.188 410.912 141.531 409.568C142.906 408.225 144.547 407.553 146.453 407.553C148.391 407.553 150.031 408.225 151.375 409.568C152.719 410.912 153.391 412.553 153.391 414.49C153.391 416.396 152.719 418.037 151.375 419.412C150.031 420.756 148.391 421.428 146.453 421.428ZM207.156 479.928C201.406 479.928 197.25 478.365 194.688 475.24C192.125 472.115 190.844 467.115 190.844 460.24V408.678H200.781V459.771C200.781 462.396 201.031 464.537 201.531 466.193C202.031 467.85 203 469.068 204.438 469.85C205.906 470.631 208.062 471.021 210.906 471.021C213.5 471.021 216.812 470.428 220.844 469.24L221.969 477.959C219.438 478.646 217 479.146 214.656 479.459C212.344 479.771 209.844 479.928 207.156 479.928ZM176.219 417.396V408.678H191.688V417.396H176.219ZM254.312 478.99V432.115H264.25V478.99H254.312ZM235.375 478.99V470.271H255.25V478.99H235.375ZM263.312 478.99V470.271H279.531V478.99H263.312ZM238.188 438.021V429.303H264.25V438.021H238.188ZM258.953 421.428C257.047 421.428 255.406 420.756 254.031 419.412C252.688 418.037 252.016 416.396 252.016 414.49C252.016 412.553 252.688 410.912 254.031 409.568C255.406 408.225 257.047 407.553 258.953 407.553C260.891 407.553 262.531 408.225 263.875 409.568C265.219 410.912 265.891 412.553 265.891 414.49C265.891 416.396 265.219 418.037 263.875 419.412C262.531 420.756 260.891 421.428 258.953 421.428ZM321.25 479.928C313.719 479.928 308.266 478.365 304.891 475.24C301.547 472.115 299.875 467.115 299.875 460.24V451.803H309.812V459.771C309.812 463.709 310.766 466.568 312.672 468.35C314.609 470.131 317.781 471.021 322.188 471.021C323.75 471.021 325.406 470.943 327.156 470.787C328.906 470.6 330.906 470.365 333.156 470.084L334.281 478.803C332.094 479.178 329.953 479.459 327.859 479.646C325.797 479.834 323.594 479.928 321.25 479.928ZM299.875 455.553V414.303H309.812V455.553H299.875ZM287.406 438.021V429.303H332.406V438.021H287.406ZM366.812 478.99V432.115H376.75V478.99H366.812ZM347.875 478.99V470.271H367.75V478.99H347.875ZM375.812 478.99V470.271H392.031V478.99H375.812ZM350.688 438.021V429.303H376.75V438.021H350.688ZM371.453 421.428C369.547 421.428 367.906 420.756 366.531 419.412C365.188 418.037 364.516 416.396 364.516 414.49C364.516 412.553 365.188 410.912 366.531 409.568C367.906 408.225 369.547 407.553 371.453 407.553C373.391 407.553 375.031 408.225 376.375 409.568C377.719 410.912 378.391 412.553 378.391 414.49C378.391 416.396 377.719 418.037 376.375 419.412C375.031 420.756 373.391 421.428 371.453 421.428ZM429.062 479.928C420.594 479.928 414.047 477.709 409.422 473.271C404.828 468.803 402.531 462.396 402.531 454.053C402.531 445.928 404.484 439.615 408.391 435.115C412.297 430.615 417.812 428.365 424.938 428.365C431.656 428.365 436.844 430.396 440.5 434.459C444.188 438.521 446.031 444.428 446.031 452.178C446.031 454.459 445.938 456.584 445.75 458.553H410.875V450.959H437.031C437.031 446.49 435.969 443.068 433.844 440.693C431.719 438.287 428.781 437.084 425.031 437.084C420.812 437.084 417.531 438.521 415.188 441.396C412.875 444.271 411.719 448.334 411.719 453.584C411.719 459.334 413.312 463.709 416.5 466.709C419.719 469.709 424.281 471.209 430.188 471.209C432.25 471.209 434.281 471.1 436.281 470.881C438.281 470.631 440.312 470.303 442.375 469.896L443.594 478.615C440.656 479.178 437.969 479.537 435.531 479.693C433.094 479.85 430.938 479.928 429.062 479.928ZM477.156 479.928C473.406 479.928 470.188 479.818 467.5 479.6C464.844 479.381 462.406 479.021 460.188 478.521L461.312 469.521C464.594 470.021 467.484 470.396 469.984 470.646C472.516 470.896 474.906 471.021 477.156 471.021C482.188 471.021 485.828 470.537 488.078 469.568C490.359 468.568 491.5 466.99 491.5 464.834C491.5 463.334 491.094 462.225 490.281 461.506C489.5 460.756 488.281 460.178 486.625 459.771L475.188 456.865C470.281 455.615 466.672 454.068 464.359 452.225C462.078 450.381 460.938 447.584 460.938 443.834C460.938 438.396 463.016 434.459 467.172 432.021C471.359 429.584 478.094 428.365 487.375 428.365C489.781 428.365 492.016 428.443 494.078 428.6C496.172 428.725 498.312 428.959 500.5 429.303L499.469 437.928C496.938 437.678 494.703 437.506 492.766 437.412C490.828 437.318 488.938 437.271 487.094 437.271C481.531 437.271 477.5 437.756 475 438.725C472.5 439.662 471.25 441.209 471.25 443.365C471.25 444.803 471.766 445.85 472.797 446.506C473.828 447.131 475.406 447.709 477.531 448.24L486.719 450.49C491.938 451.74 495.75 453.412 498.156 455.506C500.594 457.6 501.812 460.646 501.812 464.646C501.812 469.99 499.859 473.881 495.953 476.318C492.047 478.725 485.781 479.928 477.156 479.928Z" fill="#657075"/>
<defs>
<linearGradient id="paint0_linear_13_91" x1="11.0503" y1="126.345" x2="84.7194" y2="186.509" gradientUnits="userSpaceOnUse">
<stop stop-color="#1EAC9F"/>
<stop offset="1" stop-color="#27B0CD"/>
</linearGradient>
<linearGradient id="paint1_linear_13_91" x1="149.794" y1="43.4678" x2="223.463" y2="103.631" gradientUnits="userSpaceOnUse">
<stop stop-color="#1DAB98"/>
<stop offset="1" stop-color="#25AFC9"/>
</linearGradient>
<linearGradient id="paint2_linear_13_91" x1="357.909" y1="23.8227" x2="284.24" y2="83.9858" gradientUnits="userSpaceOnUse">
<stop stop-color="#1EACA1"/>
<stop offset="1" stop-color="#25AFCC"/>
</linearGradient>
<linearGradient id="paint3_linear_13_91" x1="491.127" y1="90.1248" x2="417.458" y2="150.288" gradientUnits="userSpaceOnUse">
<stop stop-color="#20ACA9"/>
<stop offset="1" stop-color="#27B0D8"/>
</linearGradient>
<linearGradient id="paint4_linear_13_91" x1="205.3" y1="13.3257" x2="328.488" y2="23.4967" gradientUnits="userSpaceOnUse">
<stop stop-color="#7D6DE5"/>
<stop offset="1" stop-color="#7B6BE3"/>
</linearGradient>
<linearGradient id="paint5_linear_13_91" x1="5.72305e-06" y1="191.42" x2="236.969" y2="299.468" gradientUnits="userSpaceOnUse">
<stop stop-color="#7D70E8"/>
<stop offset="1" stop-color="#7B66E0"/>
</linearGradient>
<linearGradient id="paint6_linear_13_91" x1="512" y1="192.469" x2="275.031" y2="300.517" gradientUnits="userSpaceOnUse">
<stop stop-color="#7D70E8"/>
<stop offset="1" stop-color="#7B66E0"/>
</linearGradient>
<linearGradient id="paint7_linear_13_91" x1="70.4614" y1="79.4007" x2="256.099" y2="113.715" gradientUnits="userSpaceOnUse">
<stop stop-color="#7E72E9"/>
<stop offset="1" stop-color="#7A66E0"/>
</linearGradient>
<linearGradient id="paint8_linear_13_91" x1="441.539" y1="80.4498" x2="255.901" y2="114.764" gradientUnits="userSpaceOnUse">
<stop stop-color="#7E72E9"/>
<stop offset="1" stop-color="#7A66E0"/>
</linearGradient>
</defs>
</svg>
