<svg width="512" height="512" viewBox="0 0 512 512" fill="none" xmlns="http://www.w3.org/2000/svg">
<path d="M60.0138 156.101L12.4914 164.901C11.7988 165.029 11.4523 165.814 11.8243 166.413L41.986 214.908C42.2099 215.268 42.6365 215.447 43.0505 215.356L82.8904 206.568C83.5144 206.43 83.8509 205.751 83.5823 205.171L61.1032 156.663C60.9112 156.249 60.4629 156.018 60.0138 156.101Z" fill="url(#paint0_linear_13_122)"/>
<path d="M207.556 93.5383L156.561 55.5883C155.978 55.155 155.143 55.4669 154.987 56.1759L143.194 109.836C143.102 110.251 143.284 110.68 143.647 110.902L192.882 141.155C193.443 141.5 194.179 141.218 194.365 140.586L207.918 94.6234C208.037 94.2215 207.892 93.7884 207.556 93.5383Z" fill="url(#paint1_linear_13_122)"/>
<path d="M304.499 81.8888L350.472 51.8293C351.08 51.4317 351.896 51.7948 352.008 52.5128L361.493 113.578C361.554 113.965 361.382 114.352 361.054 114.567L321.602 140.476C321.037 140.847 320.274 140.562 320.091 139.911L304.083 82.9965C303.965 82.5762 304.133 82.1278 304.499 81.8888Z" fill="url(#paint2_linear_13_122)"/>
<path d="M454.441 156.682L503.756 163.727C504.464 163.828 504.84 164.618 504.472 165.232L474.291 215.534C474.078 215.889 473.669 216.076 473.262 216.005L432.819 208.971C432.184 208.861 431.818 208.189 432.069 207.596L453.379 157.282C453.555 156.864 453.992 156.618 454.441 156.682Z" fill="url(#paint3_linear_13_122)"/>
<path d="M206.272 169.465C203.817 102.549 238.399 57.1199 255.998 43C304.619 87.6926 305.112 146.137 306.953 169.465C310.391 234.294 274.416 283.243 255.998 299.614C207.376 247.554 205.659 191.566 206.272 169.465Z" fill="url(#paint4_linear_13_122)"/>
<path d="M0 250.501C42.2369 222.998 81.036 219.396 95.1559 221.033C134.937 273.584 201.976 300.842 238.197 303.297C123.396 366.53 27.8305 293.065 0 250.501Z" fill="url(#paint5_linear_13_122)"/>
<path d="M512 251.55C469.763 224.047 430.964 220.446 416.844 222.083C377.063 274.633 310.024 301.891 273.803 304.347C388.604 367.579 484.169 294.115 512 251.55Z" fill="url(#paint6_linear_13_122)"/>
<path d="M176.191 144.295C134.446 111.39 88.4023 107.256 70.599 109.302C68.6345 150.557 88.1977 187.473 98.2249 200.775C151.267 273.952 207.501 288.154 228.987 286.108C202.958 251.238 195.222 210.597 194.609 194.636C196.082 165.168 182.944 148.797 176.191 144.295Z" fill="url(#paint7_linear_13_122)"/>
<path d="M335.809 145.344C377.554 112.439 423.598 108.305 441.401 110.351C443.366 151.606 423.802 188.522 413.775 201.824C360.733 275.002 304.499 289.203 283.013 287.157C309.042 252.287 316.778 211.646 317.391 195.685C315.918 166.217 329.056 149.846 335.809 145.344Z" fill="url(#paint8_linear_13_122)"/>
<path d="M142.15 452.377C133.645 452.377 127.497 450.066 123.707 445.443C119.917 440.821 118.021 433.425 118.021 423.256V346.986H132.721V422.562C132.721 426.445 133.09 429.612 133.83 432.062C134.57 434.511 136.003 436.314 138.129 437.47C140.301 438.625 143.491 439.203 147.697 439.203C151.534 439.203 156.434 438.325 162.396 436.568L164.061 449.465C160.316 450.482 156.711 451.221 153.244 451.684C149.824 452.146 146.126 452.377 142.15 452.377ZM96.3887 359.883V346.986H119.27V359.883H96.3887ZM227.711 452.377C216.571 452.377 208.505 450.066 203.513 445.443C198.567 440.821 196.094 433.425 196.094 423.256V410.775H210.793V422.562C210.793 428.387 212.203 432.616 215.022 435.251C217.888 437.886 222.58 439.203 229.098 439.203C231.409 439.203 233.859 439.088 236.447 438.856C239.036 438.579 241.994 438.232 245.322 437.816L246.986 450.713C243.751 451.268 240.584 451.684 237.487 451.961C234.437 452.238 231.178 452.377 227.711 452.377ZM196.094 416.322V355.307H210.793V416.322H196.094ZM177.65 390.391V377.494H244.213V390.391H177.65ZM291.916 452.377C286.369 452.377 281.608 452.215 277.633 451.892C273.704 451.568 270.098 451.036 266.816 450.297L268.48 436.984C273.334 437.724 277.61 438.279 281.308 438.648C285.052 439.018 288.588 439.203 291.916 439.203C299.358 439.203 304.743 438.487 308.071 437.054C311.446 435.575 313.133 433.24 313.133 430.051C313.133 427.832 312.532 426.191 311.33 425.128C310.174 424.019 308.372 423.163 305.922 422.562L289.004 418.264C281.747 416.415 276.408 414.127 272.987 411.399C269.613 408.672 267.926 404.535 267.926 398.988C267.926 390.945 271 385.121 277.147 381.516C283.341 377.91 293.303 376.107 307.031 376.107C310.59 376.107 313.896 376.223 316.946 376.454C320.043 376.639 323.21 376.986 326.445 377.494L324.92 390.252C321.176 389.882 317.871 389.628 315.005 389.489C312.139 389.351 309.342 389.281 306.615 389.281C298.387 389.281 292.424 389.998 288.727 391.431C285.029 392.817 283.18 395.105 283.18 398.295C283.18 400.421 283.942 401.97 285.468 402.94C286.993 403.865 289.327 404.72 292.471 405.506L306.061 408.834C313.78 410.683 319.419 413.156 322.979 416.253C326.584 419.35 328.387 423.857 328.387 429.773C328.387 437.678 325.498 443.433 319.72 447.038C313.942 450.597 304.674 452.377 291.916 452.377ZM373.594 452.377C365.874 452.377 359.888 450.089 355.636 445.513C351.429 440.89 349.326 434.396 349.326 426.029V377.494H364.025V426.029C364.025 430.236 365.227 433.494 367.631 435.806C370.035 438.071 373.409 439.203 377.754 439.203C383.116 439.203 387.16 437.516 389.888 434.142C392.615 430.721 393.979 425.012 393.979 417.016L397.723 436.846H392.869C391.714 441.838 389.449 445.674 386.074 448.355C382.7 451.036 378.54 452.377 373.594 452.377ZM395.227 451.684L393.979 434.072V421.176H408.678V437.678L418.801 439.203V450.99L395.227 451.684ZM393.979 430.189V377.494H408.678V426.029L393.979 430.189Z" fill="#657075"/>
<defs>
<linearGradient id="paint0_linear_13_122" x1="11.0503" y1="155.345" x2="84.7194" y2="215.509" gradientUnits="userSpaceOnUse">
<stop stop-color="#1EAC9F"/>
<stop offset="1" stop-color="#27B0CD"/>
</linearGradient>
<linearGradient id="paint1_linear_13_122" x1="149.794" y1="72.4678" x2="223.463" y2="132.631" gradientUnits="userSpaceOnUse">
<stop stop-color="#1DAB98"/>
<stop offset="1" stop-color="#25AFC9"/>
</linearGradient>
<linearGradient id="paint2_linear_13_122" x1="357.909" y1="52.8227" x2="284.24" y2="112.986" gradientUnits="userSpaceOnUse">
<stop stop-color="#1EACA1"/>
<stop offset="1" stop-color="#25AFCC"/>
</linearGradient>
<linearGradient id="paint3_linear_13_122" x1="491.127" y1="119.125" x2="417.458" y2="179.288" gradientUnits="userSpaceOnUse">
<stop stop-color="#20ACA9"/>
<stop offset="1" stop-color="#27B0D8"/>
</linearGradient>
<linearGradient id="paint4_linear_13_122" x1="205.3" y1="42.3257" x2="328.488" y2="52.4967" gradientUnits="userSpaceOnUse">
<stop stop-color="#7D6DE5"/>
<stop offset="1" stop-color="#7B6BE3"/>
</linearGradient>
<linearGradient id="paint5_linear_13_122" x1="5.72305e-06" y1="220.42" x2="236.969" y2="328.468" gradientUnits="userSpaceOnUse">
<stop stop-color="#7D70E8"/>
<stop offset="1" stop-color="#7B66E0"/>
</linearGradient>
<linearGradient id="paint6_linear_13_122" x1="512" y1="221.469" x2="275.031" y2="329.517" gradientUnits="userSpaceOnUse">
<stop stop-color="#7D70E8"/>
<stop offset="1" stop-color="#7B66E0"/>
</linearGradient>
<linearGradient id="paint7_linear_13_122" x1="70.4614" y1="108.401" x2="256.099" y2="142.715" gradientUnits="userSpaceOnUse">
<stop stop-color="#7E72E9"/>
<stop offset="1" stop-color="#7A66E0"/>
</linearGradient>
<linearGradient id="paint8_linear_13_122" x1="441.539" y1="109.45" x2="255.901" y2="143.764" gradientUnits="userSpaceOnUse">
<stop stop-color="#7E72E9"/>
<stop offset="1" stop-color="#7A66E0"/>
</linearGradient>
</defs>
</svg>
