<svg width="512" height="512" viewBox="0 0 512 512" fill="none" xmlns="http://www.w3.org/2000/svg">
<path d="M60.0138 154.101L12.4914 162.901C11.7988 163.029 11.4523 163.814 11.8243 164.412L41.986 212.908C42.2099 213.268 42.6365 213.447 43.0505 213.356L82.8904 204.568C83.5144 204.43 83.8509 203.751 83.5823 203.171L61.1032 154.663C60.9112 154.249 60.4629 154.017 60.0138 154.101Z" fill="url(#paint0_linear_13_34)"/>
<path d="M207.556 91.5382L156.56 53.5882C155.978 53.1548 155.143 53.4668 154.987 54.1758L143.193 107.836C143.102 108.251 143.284 108.679 143.647 108.902L192.882 139.155C193.443 139.5 194.178 139.218 194.365 138.586L207.918 92.6233C208.036 92.2214 207.892 91.7883 207.556 91.5382Z" fill="url(#paint1_linear_13_34)"/>
<path d="M304.499 79.8887L350.472 49.8292C351.08 49.4316 351.896 49.7947 352.008 50.5126L361.493 111.577C361.554 111.965 361.382 112.352 361.054 112.567L321.602 138.476C321.037 138.847 320.274 138.562 320.091 137.911L304.083 80.9964C303.965 80.5761 304.133 80.1277 304.499 79.8887Z" fill="url(#paint2_linear_13_34)"/>
<path d="M454.441 154.682L503.756 161.727C504.464 161.828 504.84 162.618 504.472 163.231L474.291 213.534C474.078 213.888 473.669 214.076 473.262 214.005L432.819 206.971C432.184 206.861 431.818 206.189 432.069 205.596L453.379 155.282C453.555 154.864 453.992 154.618 454.441 154.682Z" fill="url(#paint3_linear_13_34)"/>
<path d="M206.272 167.465C203.817 100.549 238.399 55.1199 255.998 41C304.619 85.6926 305.112 144.137 306.953 167.465C310.391 232.294 274.416 281.243 255.998 297.614C207.376 245.554 205.659 189.566 206.272 167.465Z" fill="url(#paint4_linear_13_34)"/>
<path d="M0 248.501C42.2369 220.998 81.036 217.396 95.1559 219.033C134.937 271.584 201.976 298.842 238.197 301.297C123.396 364.53 27.8305 291.065 0 248.501Z" fill="url(#paint5_linear_13_34)"/>
<path d="M512 249.55C469.763 222.047 430.964 218.446 416.844 220.083C377.063 272.633 310.024 299.891 273.803 302.347C388.604 365.579 484.169 292.115 512 249.55Z" fill="url(#paint6_linear_13_34)"/>
<path d="M176.192 142.295C134.446 109.39 88.4026 105.256 70.5992 107.302C68.6347 148.557 88.198 185.473 98.2251 198.775C151.267 271.952 207.501 286.154 228.988 284.108C202.958 249.238 195.223 208.597 194.609 192.636C196.082 163.168 182.945 146.797 176.192 142.295Z" fill="url(#paint7_linear_13_34)"/>
<path d="M335.808 143.344C377.554 110.439 423.597 106.305 441.401 108.351C443.365 149.606 423.802 186.522 413.775 199.824C360.733 273.002 304.499 287.203 283.012 285.157C309.042 250.287 316.777 209.646 317.391 193.685C315.918 164.217 329.055 147.846 335.808 143.344Z" fill="url(#paint8_linear_13_34)"/>
<path d="M100.549 450.377C92.0436 450.377 85.8958 448.066 82.1055 443.443C78.3151 438.821 76.4199 431.425 76.4199 421.256V344.986H91.1191V420.562C91.1191 424.445 91.4889 427.612 92.2285 430.062C92.9681 432.511 94.401 434.314 96.5273 435.47C98.6999 436.625 101.889 437.203 106.096 437.203C109.932 437.203 114.832 436.325 120.795 434.568L122.459 447.465C118.715 448.482 115.109 449.221 111.643 449.684C108.222 450.146 104.524 450.377 100.549 450.377ZM54.7871 357.883V344.986H77.668V357.883H54.7871ZM172.797 450.377C162.628 450.377 154.723 447.049 149.084 440.393C143.445 433.736 140.625 424.353 140.625 412.242C140.625 400.085 143.445 390.702 149.084 384.092C154.723 377.436 162.628 374.107 172.797 374.107C183.012 374.107 190.917 377.436 196.51 384.092C202.149 390.702 204.969 400.085 204.969 412.242C204.969 424.353 202.149 433.736 196.51 440.393C190.917 447.049 183.012 450.377 172.797 450.377ZM172.797 437.203C178.205 437.203 182.365 435.031 185.277 430.686C188.236 426.34 189.715 420.193 189.715 412.242C189.715 404.245 188.236 398.098 185.277 393.799C182.365 389.454 178.205 387.281 172.797 387.281C167.389 387.281 163.205 389.454 160.247 393.799C157.335 398.098 155.879 404.245 155.879 412.242C155.879 420.193 157.335 426.34 160.247 430.686C163.205 435.031 167.389 437.203 172.797 437.203ZM269.312 450.377C258.173 450.377 250.106 448.066 245.114 443.443C240.168 438.821 237.695 431.425 237.695 421.256V408.775H252.395V420.562C252.395 426.387 253.804 430.616 256.624 433.251C259.49 435.886 264.182 437.203 270.699 437.203C273.01 437.203 275.46 437.088 278.049 436.856C280.637 436.579 283.596 436.232 286.924 435.816L288.588 448.713C285.352 449.268 282.186 449.684 279.089 449.961C276.038 450.238 272.779 450.377 269.312 450.377ZM237.695 414.322V353.307H252.395V414.322H237.695ZM219.252 388.391V375.494H285.814V388.391H219.252ZM331.992 450.377C324.273 450.377 318.287 448.089 314.034 443.513C309.828 438.89 307.725 432.396 307.725 424.029V375.494H322.424V424.029C322.424 428.236 323.626 431.494 326.029 433.806C328.433 436.071 331.807 437.203 336.152 437.203C341.514 437.203 345.559 435.516 348.286 432.142C351.013 428.721 352.377 423.012 352.377 415.016L356.121 434.846H351.268C350.112 439.838 347.847 443.674 344.473 446.355C341.098 449.036 336.938 450.377 331.992 450.377ZM353.625 449.684L352.377 432.072V419.176H367.076V435.678L377.199 437.203V448.99L353.625 449.684ZM352.377 428.189V375.494H367.076V424.029L352.377 428.189ZM416.721 450.377C411.174 450.377 406.413 450.215 402.438 449.892C398.508 449.568 394.903 449.036 391.621 448.297L393.285 434.984C398.139 435.724 402.414 436.279 406.112 436.648C409.856 437.018 413.393 437.203 416.721 437.203C424.163 437.203 429.548 436.487 432.876 435.054C436.25 433.575 437.938 431.24 437.938 428.051C437.938 425.832 437.337 424.191 436.135 423.128C434.979 422.019 433.176 421.163 430.727 420.562L413.809 416.264C406.551 414.415 401.213 412.127 397.792 409.399C394.418 406.672 392.73 402.535 392.73 396.988C392.73 388.945 395.804 383.121 401.952 379.516C408.146 375.91 418.107 374.107 431.836 374.107C435.395 374.107 438.7 374.223 441.751 374.454C444.848 374.639 448.014 374.986 451.25 375.494L449.725 388.252C445.98 387.882 442.675 387.628 439.81 387.489C436.944 387.351 434.147 387.281 431.42 387.281C423.192 387.281 417.229 387.998 413.531 389.431C409.833 390.817 407.984 393.105 407.984 396.295C407.984 398.421 408.747 399.97 410.272 400.94C411.798 401.865 414.132 402.72 417.275 403.506L430.865 406.834C438.585 408.683 444.224 411.156 447.783 414.253C451.389 417.35 453.191 421.857 453.191 427.773C453.191 435.678 450.302 441.433 444.524 445.038C438.746 448.597 429.479 450.377 416.721 450.377Z" fill="#657075"/>
<defs>
<linearGradient id="paint0_linear_13_34" x1="11.0503" y1="153.345" x2="84.7194" y2="213.508" gradientUnits="userSpaceOnUse">
<stop stop-color="#0D9C60"/>
<stop offset="1" stop-color="#0D9C9C"/>
</linearGradient>
<linearGradient id="paint1_linear_13_34" x1="149.794" y1="70.4677" x2="223.463" y2="130.631" gradientUnits="userSpaceOnUse">
<stop stop-color="#0D9C60"/>
<stop offset="1" stop-color="#0D9C9C"/>
</linearGradient>
<linearGradient id="paint2_linear_13_34" x1="357.909" y1="50.8226" x2="284.24" y2="110.986" gradientUnits="userSpaceOnUse">
<stop stop-color="#0D9C60"/>
<stop offset="1" stop-color="#0D9C9C"/>
</linearGradient>
<linearGradient id="paint3_linear_13_34" x1="491.127" y1="117.125" x2="417.458" y2="177.288" gradientUnits="userSpaceOnUse">
<stop stop-color="#0D9C60"/>
<stop offset="1" stop-color="#0D9C9C"/>
</linearGradient>
<linearGradient id="paint4_linear_13_34" x1="205.3" y1="40.3257" x2="328.488" y2="50.4967" gradientUnits="userSpaceOnUse">
<stop stop-color="#D24DB4"/>
<stop offset="1" stop-color="#CF3FAF"/>
</linearGradient>
<linearGradient id="paint5_linear_13_34" x1="5.72305e-06" y1="218.42" x2="236.969" y2="326.468" gradientUnits="userSpaceOnUse">
<stop stop-color="#D24DB4"/>
<stop offset="1" stop-color="#CF3FAF"/>
</linearGradient>
<linearGradient id="paint6_linear_13_34" x1="512" y1="219.469" x2="275.031" y2="327.517" gradientUnits="userSpaceOnUse">
<stop stop-color="#D24DB4"/>
<stop offset="1" stop-color="#CF3FAF"/>
</linearGradient>
<linearGradient id="paint7_linear_13_34" x1="70.4617" y1="106.401" x2="256.1" y2="140.715" gradientUnits="userSpaceOnUse">
<stop stop-color="#D24DB4"/>
<stop offset="1" stop-color="#CF3FAF"/>
</linearGradient>
<linearGradient id="paint8_linear_13_34" x1="441.538" y1="107.45" x2="255.9" y2="141.764" gradientUnits="userSpaceOnUse">
<stop stop-color="#D24DB4"/>
<stop offset="1" stop-color="#CF3FAF"/>
</linearGradient>
</defs>
</svg>
